<svg xmlns="http://www.w3.org/2000/svg" class="w-6 h-6" fill="#9ca3af" viewBox="0 0 24 24">
  <path d="M12 .5C5.73.5.5 5.73.5 12a11.5 11.5 0 008 10.94c.59.11.8-.25.8-.56v-2c-3.26.71-3.95-1.57-3.95-1.57-.54-1.37-1.32-1.73-1.32-1.73-1.08-.74.08-.72.08-.72 1.2.08 1.84 1.23 1.84 1.23 1.06 1.82 2.78 1.29 3.45.99.11-.77.42-1.29.76-1.59-2.6-.3-5.34-1.3-5.34-5.79 0-1.28.46-2.33 1.22-3.16-.12-.3-.53-1.53.12-3.18 0 0 .99-.32 3.24 1.2a11.2 11.2 0 015.9 0c2.25-1.52 3.23-1.2 3.23-1.2.65 1.65.24 2.88.12 3.18.76.83 1.22 1.88 1.22 3.16 0 4.5-2.75 5.49-5.37 5.78.43.37.81 1.1.81 2.22v3.3c0 .31.2.67.81.56A11.5 11.5 0 0023.5 12c0-6.27-5.23-11.5-11.5-11.5z"/>
</svg>
