<svg xmlns="http://www.w3.org/2000/svg" class="w-6 h-6" fill="#9ca3af" viewBox="0 0 24 24">
  <path d="M20.447 20.452h-3.554v-5.569c0-1.327-.027-3.037-1.852-3.037-1.853 0-2.136 1.446-2.136 2.94v5.666h-3.554V9h3.414v1.561h.05c.476-.9 1.636-1.85 3.366-1.85 3.594 0 4.256 2.364 4.256 5.438v6.303zM5.337 7.433a2.07 2.07 0 01-2.07-2.07 2.07 2.07 0 112.07 2.07zM6.847 20.452H3.827V9h3.02v11.452zM22.225 0H1.771C.792 0 0 .774 0 1.729v20.542C0 23.226.792 24 1.771 24h20.451C23.2 24 24 23.226 24 22.271V1.729C24 .774 23.2 0 22.225 0z"/>
</svg>
